<svg viewBox="0 0 128 128" xmlns="http://www.w3.org/2000/svg">
  <!-- Фон -->
  <rect x="0" y="0" width="128" height="128" rx="16" fill="#1E1E1E" />
  
  <!-- Семь нейронов - трехслойная структура -->
  <!-- Верхний слой (входной) - 2 нейрона -->
  <circle cx="44" cy="30" r="8" fill="#FFFFFF" />
  <circle cx="84" cy="30" r="8" fill="#FFFFFF" />
  
  <!-- Средний слой (скрытый) - 3 нейрона -->
  <circle cx="34" cy="64" r="8" fill="#FFFFFF" />
  <circle cx="64" cy="64" r="8" fill="#FFFFFF" />
  <circle cx="94" cy="64" r="8" fill="#FFFFFF" />
  
  <!-- Нижний слой (выходной) - 2 нейрона -->
  <circle cx="44" cy="98" r="8" fill="#FFFFFF" />
  <circle cx="84" cy="98" r="8" fill="#FFFFFF" />
  
  <!-- Соединяющие линии от верхнего к среднему слою -->
  <line x1="44" y1="30" x2="34" y2="64" stroke="#FFFFFF" stroke-width="1.5" />
  <line x1="44" y1="30" x2="64" y2="64" stroke="#FFFFFF" stroke-width="1.5" />
  <line x1="44" y1="30" x2="94" y2="64" stroke="#FFFFFF" stroke-width="1.5" />
  <line x1="84" y1="30" x2="34" y2="64" stroke="#FFFFFF" stroke-width="1.5" />
  <line x1="84" y1="30" x2="64" y2="64" stroke="#FFFFFF" stroke-width="1.5" />
  <line x1="84" y1="30" x2="94" y2="64" stroke="#FFFFFF" stroke-width="1.5" />
  
  <!-- Соединяющие линии от среднего к нижнему слою -->
  <line x1="34" y1="64" x2="44" y2="98" stroke="#FFFFFF" stroke-width="1.5" />
  <line x1="34" y1="64" x2="84" y2="98" stroke="#FFFFFF" stroke-width="1.5" />
  <line x1="64" y1="64" x2="44" y2="98" stroke="#FFFFFF" stroke-width="1.5" />
  <line x1="64" y1="64" x2="84" y2="98" stroke="#FFFFFF" stroke-width="1.5" />
  <line x1="94" y1="64" x2="44" y2="98" stroke="#FFFFFF" stroke-width="1.5" />
  <line x1="94" y1="64" x2="84" y2="98" stroke="#FFFFFF" stroke-width="1.5" />
</svg>