<svg viewBox="0 0 24 24" xmlns="http://www.w3.org/2000/svg">
  <!-- Background -->
  <rect x="0" y="0" width="24" height="24" rx="3" fill="#1E1E1E" />
  <!-- Top layer (input) - 2 neurons -->
  <circle cx="8.25" cy="5.63" r="1.5" fill="#FFFFFF" />
  <circle cx="15.75" cy="5.63" r="1.5" fill="#FFFFFF" />
  <!-- Middle layer (hidden) - 3 neurons -->
  <circle cx="6.38" cy="12" r="1.5" fill="#FFFFFF" />
  <circle cx="12" cy="12" r="1.5" fill="#FFFFFF" />
  <circle cx="17.63" cy="12" r="1.5" fill="#FFFFFF" />
  <!-- Bottom layer (output) - 2 neurons -->
  <circle cx="8.25" cy="18.38" r="1.5" fill="#FFFFFF" />
  <circle cx="15.75" cy="18.38" r="1.5" fill="#FFFFFF" />
  <!-- Connecting lines from top to middle layer -->
  <line x1="8.25" y1="5.63" x2="6.38" y2="12" stroke="#FFFFFF" stroke-width="0.28" />
  <line x1="8.25" y1="5.63" x2="12" y2="12" stroke="#FFFFFF" stroke-width="0.28" />
  <line x1="8.25" y1="5.63" x2="17.63" y2="12" stroke="#FFFFFF" stroke-width="0.28" />
  <line x1="15.75" y1="5.63" x2="6.38" y2="12" stroke="#FFFFFF" stroke-width="0.28" />
  <line x1="15.75" y1="5.63" x2="12" y2="12" stroke="#FFFFFF" stroke-width="0.28" />
  <line x1="15.75" y1="5.63" x2="17.63" y2="12" stroke="#FFFFFF" stroke-width="0.28" />
  <!-- Connecting lines from middle to bottom layer -->
  <line x1="6.38" y1="12" x2="8.25" y2="18.38" stroke="#FFFFFF" stroke-width="0.28" />
  <line x1="6.38" y1="12" x2="15.75" y2="18.38" stroke="#FFFFFF" stroke-width="0.28" />
  <line x1="12" y1="12" x2="8.25" y2="18.38" stroke="#FFFFFF" stroke-width="0.28" />
  <line x1="12" y1="12" x2="15.75" y2="18.38" stroke="#FFFFFF" stroke-width="0.28" />
  <line x1="17.63" y1="12" x2="8.25" y2="18.38" stroke="#FFFFFF" stroke-width="0.28" />
  <line x1="17.63" y1="12" x2="15.75" y2="18.38" stroke="#FFFFFF" stroke-width="0.28" />
</svg>